<mxfile host="65bd71144e">
    <diagram id="lAowHy6Vd3Lv5QiVwMrT" name="Page-1">
        <mxGraphModel dx="654" dy="759" grid="1" gridSize="10" guides="1" tooltips="1" connect="1" arrows="1" fold="1" page="1" pageScale="1" pageWidth="850" pageHeight="1100" math="0" shadow="0">
            <root>
                <mxCell id="0"/>
                <mxCell id="1" parent="0"/>
                <mxCell id="7" style="edgeStyle=none;html=1;entryX=0.5;entryY=0;entryDx=0;entryDy=0;" edge="1" parent="1" source="2" target="5">
                    <mxGeometry relative="1" as="geometry"/>
                </mxCell>
                <mxCell id="14" style="edgeStyle=none;html=1;entryX=0.5;entryY=0;entryDx=0;entryDy=0;" edge="1" parent="1" source="2" target="4">
                    <mxGeometry relative="1" as="geometry"/>
                </mxCell>
                <mxCell id="2" value="TrapObstacle&lt;br&gt;" style="rounded=0;whiteSpace=wrap;html=1;" parent="1" vertex="1">
                    <mxGeometry x="575" y="140" width="120" height="60" as="geometry"/>
                </mxCell>
                <mxCell id="16" style="edgeStyle=none;html=1;entryX=0.5;entryY=0;entryDx=0;entryDy=0;" edge="1" parent="1" source="3" target="15">
                    <mxGeometry relative="1" as="geometry"/>
                </mxCell>
                <mxCell id="3" value="DeadlyObstacle" style="rounded=0;whiteSpace=wrap;html=1;" parent="1" vertex="1">
                    <mxGeometry x="450" y="520" width="120" height="60" as="geometry"/>
                </mxCell>
                <mxCell id="4" value="UnitBee" style="swimlane;whiteSpace=wrap;html=1;" vertex="1" parent="1">
                    <mxGeometry x="410" y="260" width="200" height="200" as="geometry"/>
                </mxCell>
                <mxCell id="17" value="default()" style="text;html=1;align=center;verticalAlign=middle;resizable=0;points=[];autosize=1;strokeColor=none;fillColor=none;" vertex="1" parent="4">
                    <mxGeometry y="30" width="70" height="30" as="geometry"/>
                </mxCell>
                <mxCell id="18" value="Movement" style="text;html=1;align=center;verticalAlign=middle;resizable=0;points=[];autosize=1;strokeColor=none;fillColor=none;" vertex="1" parent="4">
                    <mxGeometry y="60" width="80" height="30" as="geometry"/>
                </mxCell>
                <mxCell id="19" value="Dead after collion" style="text;html=1;align=center;verticalAlign=middle;resizable=0;points=[];autosize=1;strokeColor=none;fillColor=none;" vertex="1" parent="4">
                    <mxGeometry y="90" width="120" height="30" as="geometry"/>
                </mxCell>
                <mxCell id="20" style="edgeStyle=none;html=1;entryX=1;entryY=0.5;entryDx=0;entryDy=0;" edge="1" parent="1" source="5" target="15">
                    <mxGeometry relative="1" as="geometry"/>
                </mxCell>
                <mxCell id="5" value="BeeHiveObstacle" style="swimlane;whiteSpace=wrap;html=1;swimlaneLine=1;rounded=0;glass=0;shadow=0;" vertex="1" parent="1">
                    <mxGeometry x="650" y="260" width="200" height="200" as="geometry"/>
                </mxCell>
                <mxCell id="8" value="can stun: false" style="text;html=1;align=center;verticalAlign=middle;resizable=0;points=[];autosize=1;strokeColor=none;fillColor=none;" vertex="1" parent="5">
                    <mxGeometry y="30" width="100" height="30" as="geometry"/>
                </mxCell>
                <mxCell id="21" value="collision active&amp;nbsp;BeeSwarm" style="text;html=1;align=center;verticalAlign=middle;resizable=0;points=[];autosize=1;strokeColor=none;fillColor=none;" vertex="1" parent="5">
                    <mxGeometry y="60" width="160" height="30" as="geometry"/>
                </mxCell>
                <mxCell id="24" value="Before collision: static" style="text;html=1;align=center;verticalAlign=middle;resizable=0;points=[];autosize=1;strokeColor=none;fillColor=none;rounded=0;shadow=0;glass=0;sketch=0;" vertex="1" parent="5">
                    <mxGeometry y="85" width="140" height="30" as="geometry"/>
                </mxCell>
                <mxCell id="25" value="After collision: dynamic" style="text;html=1;align=center;verticalAlign=middle;resizable=0;points=[];autosize=1;strokeColor=none;fillColor=none;rounded=0;shadow=0;glass=0;sketch=0;" vertex="1" parent="5">
                    <mxGeometry y="110" width="150" height="30" as="geometry"/>
                </mxCell>
                <mxCell id="15" value="BeeSwarm" style="swimlane;whiteSpace=wrap;html=1;rounded=0;shadow=0;glass=0;sketch=0;" vertex="1" parent="1">
                    <mxGeometry x="410" y="650" width="200" height="200" as="geometry"/>
                </mxCell>
                <mxCell id="22" value="time active: 10" style="text;html=1;align=center;verticalAlign=middle;resizable=0;points=[];autosize=1;strokeColor=none;fillColor=none;" vertex="1" parent="15">
                    <mxGeometry y="30" width="100" height="30" as="geometry"/>
                </mxCell>
            </root>
        </mxGraphModel>
    </diagram>
</mxfile>